<svg xmlns="http://www.w3.org/2000/svg" version="1.1" xmlns:xlink="http://www.w3.org/1999/xlink" xmlns:svgjs="http://svgjs.dev/svgjs" width="1500" height="1500" viewBox="0 0 1500 1500"><rect width="1500" height="1500" fill="#000000"></rect><g transform="matrix(0.6666666666666666,0,0,0.6666666666666666,249.39393939393938,574.6659523231622)"><svg viewBox="0 0 396 139" data-background-color="#dedede" preserveAspectRatio="xMidYMid meet" height="526" width="1500" xmlns="http://www.w3.org/2000/svg" xmlns:xlink="http://www.w3.org/1999/xlink"><g id="tight-bounds" transform="matrix(1,0,0,1,0.2400000000000091,0.0002831570735963851)"><svg viewBox="0 0 395.52 138.9992307949389" height="138.9992307949389" width="395.52"><g><svg viewBox="0 0 652.374484092803 229.26666534977937" height="138.9992307949389" width="395.52"><g transform="matrix(1,0,0,1,256.8544840928029,64.83909139533601)"><svg viewBox="0 0 395.52 99.58848255910735" height="99.58848255910735" width="395.52"><g id="textblocktransform"><svg viewBox="0 0 395.52 99.58848255910735" height="99.58848255910735" width="395.52" id="textblock"><g><svg viewBox="0 0 395.52 58.42995209810308" height="58.42995209810308" width="395.52"><g transform="matrix(1,0,0,1,0,0)"><svg width="395.52" viewBox="0.24 -36.84 254.82 37.650000000000006" height="58.42995209810308" data-palette-color="#374151"><g class="wordmark-text-0" data-fill-palette-color="primary" id="text-0"><path d="M33.45-2.15L33.45 0 21.56 0 21.56-2.15 24.44-2.39Q24.63-2.39 24.8-2.65 24.98-2.91 24.98-3.13L24.98-3.13Q24.98-3.22 24.95-3.25L24.95-3.25 21.51-12.4 9.96-12.4 6.64-3.39Q6.62-3.34 6.62-3.25L6.62-3.25Q6.62-2.95 6.87-2.67 7.13-2.39 7.35-2.39L7.35-2.39 10.3-2.15 10.3 0 0.24 0 0.24-2.15 3.15-2.76 14.79-34.35 18.55-34.35 30.15-3.49Q30.35-2.98 30.49-2.81 30.64-2.64 31.2-2.54L31.2-2.54 33.45-2.15ZM10.84-14.79L20.61-14.79 15.7-27.91 10.84-14.79ZM59.64-24.1L59.64-22.14 56.98-21.85 48.24 0 44.99 0 36.94-21.85 34.18-22.14 34.18-24.1 45.24-24.1 45.24-22.14 42.84-22Q42.04-21.92 42.04-21.19L42.04-21.19Q42.04-21.09 42.09-20.9L42.09-20.9 47.68-5.25 53.83-20.9Q53.9-21.04 53.9-21.22L53.9-21.22Q53.9-21.95 53.15-22L53.15-22 50.9-22.14 50.9-24.1 59.64-24.1ZM84.74-1.95L84.74 0 77.34 0 76.68-2.95Q76.68-2.95 75.93-2.42 75.19-1.88 73.97-1.17 72.75-0.46 71.27 0.07 69.79 0.61 68.33 0.61L68.33 0.61Q65.62 0.61 63.73-1.2 61.84-3 61.84-6.15L61.84-6.15Q61.84-7.54 62.34-8.74 62.84-9.94 64.34-11.02 65.84-12.11 68.81-13.15 71.77-14.18 76.68-15.26L76.68-15.26 76.68-17.41Q76.68-22.34 72.02-22.34L72.02-22.34Q70.72-22.34 69.78-22.09 68.84-21.85 68.48-21.7L68.48-21.7 68.48-17.36 64.84-17.36Q64.16-17.36 63.57-17.61 62.98-17.87 62.98-18.8L62.98-18.8Q62.98-20.85 64.55-22.16 66.11-23.46 68.51-24.08 70.92-24.71 73.38-24.71L73.38-24.71Q76.48-24.71 78.19-23.74 79.9-22.78 80.59-21.08 81.27-19.38 81.27-17.21L81.27-17.21 81.27-3.2Q81.27-2.73 81.57-2.44 81.88-2.15 82.32-2.1L82.32-2.1 84.74-1.95ZM76.68-4.71L76.68-4.71 76.68-13.35Q73.31-12.52 71.32-11.68 69.33-10.84 68.35-10 67.38-9.16 67.07-8.29 66.77-7.42 66.77-6.49L66.77-6.49Q66.77-4.96 67.76-3.65 68.75-2.34 70.53-2.34L70.53-2.34Q71.53-2.34 72.6-2.7 73.68-3.05 74.6-3.53 75.53-4 76.11-4.36 76.68-4.71 76.68-4.71ZM112.47-1.95L112.47 0 104.61 0 104.61-2.66Q102.9-1.34 100.97-0.37 99.04 0.61 96.87 0.61L96.87 0.61Q94.35 0.61 92.53-0.45 90.72-1.51 89.56-3.27 88.4-5.03 87.83-7.15 87.27-9.28 87.27-11.4L87.27-11.4Q87.27-14.79 88.66-17.83 90.06-20.87 92.89-22.79 95.72-24.71 100.02-24.71L100.02-24.71Q101.21-24.71 102.62-24.48 104.02-24.24 104.61-24.1L104.61-24.1 104.61-33.25 100.82-33.25 100.82-34.91 107.27-36.84 109.27-36.84 109.27-3.2Q109.27-2.17 110.32-2.1L110.32-2.1 112.47-1.95ZM104.61-4.54L104.61-4.54 104.61-21.56Q103.97-21.78 102.71-22.03 101.46-22.29 100.36-22.29L100.36-22.29Q96.65-22.29 94.43-19.54 92.2-16.8 92.2-12.26L92.2-12.26Q92.2-8.18 94.11-5.49 96.01-2.81 99.46-2.81L99.46-2.81Q100.97-2.81 102.3-3.38 103.63-3.96 104.61-4.54ZM141.3-1.95L141.3 0 130.17 0 130.17-1.95 132.22-2.1Q132.66-2.15 132.99-2.44 133.32-2.73 133.32-3.2L133.32-3.2 133.32-16.09Q133.32-18.24 132.29-19.64 131.26-21.04 128.36-21.04L128.36-21.04Q127.04-21.04 125.51-20.63 123.99-20.21 122.91-19.6L122.91-19.6 122.91-3.2Q122.91-2.17 123.92-2.1L123.92-2.1 126.06-1.95 126.06 0 114.81 0 114.81-1.95 117.2-2.1Q118.25-2.17 118.25-3.2L118.25-3.2 118.25-33.25 114.52-33.25 114.52-34.91 120.91-36.84 122.91-36.84 122.91-21.61Q123.82-22.17 125.26-22.89 126.7-23.61 128.29-24.16 129.87-24.71 131.17-24.71L131.17-24.71Q134.05-24.71 136-22.85 137.95-21 137.95-17.14L137.95-17.14 137.95-3.2Q137.95-2.73 138.28-2.44 138.61-2.15 139.05-2.1L139.05-2.1 141.3-1.95ZM166.56-9.4L166.56-9.4Q166.56-6.88 165.21-4.54 163.85-2.2 160.94-0.7 158.02 0.81 153.31 0.81L153.31 0.81Q150.62 0.81 148.62 0.34 146.62-0.12 145.52-0.59 144.42-1.05 144.42-1.05L144.42-1.05 144.42-9.91 147.57-9.91 148.23-4.25Q148.28-3.96 148.55-3.61 148.82-3.27 149.06-3.15L149.06-3.15Q149.18-3.13 150.49-2.56 151.79-2 154.11-2L154.11-2Q157.31-2 159.39-3.56 161.46-5.13 161.46-7.91L161.46-7.91Q161.46-9.42 160.62-10.56 159.78-11.69 158.43-12.57 157.09-13.45 155.57-14.17 154.04-14.89 152.67-15.55L152.67-15.55Q150.62-16.53 148.86-17.64 147.11-18.75 146.03-20.39 144.96-22.02 144.96-24.56L144.96-24.56Q144.96-27.54 146.47-29.74 147.99-31.93 150.6-33.14 153.21-34.35 156.51-34.35L156.51-34.35Q159.19-34.35 161.24-33.83 163.29-33.3 164.88-32.79L164.88-32.79 165.32-32.64 165.32-24.85 162.46-24.85 161.71-29.64Q161.66-29.98 161.4-30.14 161.14-30.3 160.93-30.52L160.93-30.52Q160.73-30.66 159.72-31.15 158.7-31.64 156.58-31.64L156.58-31.64Q153.58-31.64 151.84-29.97 150.11-28.3 150.11-25.76L150.11-25.76Q150.11-23.46 151.9-21.95 153.7-20.43 157.07-19.14L157.07-19.14Q161.61-17.43 164.09-15.3 166.56-13.16 166.56-9.4ZM185.17-3.05L185.17-3.05 185.17-1.05Q185.17-1.05 184.23-0.63 183.29-0.22 181.76 0.2 180.23 0.61 178.43 0.61L178.43 0.61Q175.62 0.61 174.34-0.72 173.06-2.05 173.06-5L173.06-5 173.06-21.61 169.86-21.61 169.86-23.24 173.28-24.85 175.52-30.15 177.72-30.15 177.72-24.1 184.78-24.1 184.78-21.61 177.72-21.61 177.72-7.64Q177.72-4.66 178.72-3.43 179.72-2.2 181.72-2.2L181.72-2.2Q183.19-2.2 184.18-2.62 185.17-3.05 185.17-3.05ZM210.99-12.01L210.99-12.01Q210.99-8.47 209.53-5.6 208.06-2.73 205.39-1.06 202.72 0.61 199.05 0.61L199.05 0.61Q195.42 0.61 192.76-1.05 190.09-2.71 188.65-5.57 187.21-8.42 187.21-12.01L187.21-12.01Q187.21-15.58 188.67-18.46 190.12-21.34 192.82-23.02 195.51-24.71 199.2-24.71L199.2-24.71Q202.94-24.71 205.57-23 208.21-21.29 209.6-18.41 210.99-15.53 210.99-12.01ZM205.79-12.06L205.79-12.06Q205.79-14.79 205.07-17.16 204.35-19.53 202.88-21 201.4-22.46 199.15-22.46L199.15-22.46Q196.83-22.46 195.36-21 193.88-19.53 193.17-17.16 192.46-14.79 192.46-12.06L192.46-12.06Q192.46-9.35 193.18-6.97 193.9-4.59 195.38-3.13 196.86-1.66 199.1-1.66L199.1-1.66Q201.4-1.66 202.88-3.13 204.35-4.59 205.07-6.96 205.79-9.33 205.79-12.06ZM231.74-23.95L231.74-18.99 229.79-18.99Q229.33-19.56 228.68-19.96 228.03-20.36 227.1-20.36L227.1-20.36Q225.91-20.36 224.65-19.53 223.39-18.7 222.1-17.26L222.1-17.26 222.1-3.2Q222.1-2.15 223.15-2.1L223.15-2.1 226.44-1.95 226.44 0 213.94 0 213.94-1.9 216.41-2.1Q216.85-2.15 217.16-2.44 217.46-2.73 217.46-3.2L217.46-3.2 217.46-20.56 213.85-20.56 213.85-22.19 220.05-24.1 222.1-24.1 222.1-19.65Q222.83-20.46 223.93-21.66 225.03-22.85 226.27-23.78 227.52-24.71 228.69-24.71L228.69-24.71Q229.47-24.71 230.38-24.46 231.28-24.22 231.74-23.95L231.74-23.95ZM255.06-5.54L255.06-2.49Q252.96-1.2 250.53-0.29 248.1 0.61 245.56 0.61L245.56 0.61Q242.53 0.61 239.88-0.74 237.23-2.1 235.6-4.86 233.96-7.62 233.96-11.79L233.96-11.79Q233.96-15.7 235.48-18.6 236.99-21.51 239.65-23.11 242.31-24.71 245.71-24.71L245.71-24.71Q250.37-24.71 252.71-21.81 255.06-18.92 255.06-14.45L255.06-14.45Q255.06-14.21 255.06-13.81 255.06-13.4 255.01-13.06L255.01-13.06 238.8-13.06Q238.8-11.16 239.2-9.27 239.6-7.37 240.55-5.83 241.51-4.3 243.12-3.37 244.73-2.44 247.15-2.44L247.15-2.44Q249.29-2.44 251.33-3.43 253.37-4.42 255.06-5.54L255.06-5.54ZM239.06-15.31L250.05-15.31 250.05-16.41Q250.05-18.87 248.87-20.56 247.68-22.24 245.19-22.24L245.19-22.24Q242.73-22.24 240.99-20.39 239.26-18.53 239.06-15.31L239.06-15.31Z" fill="#ffffff" data-fill-palette-color="primary"></path></g></svg></g></svg></g><g transform="matrix(1,0,0,1,0,72.22386146961486)"><svg viewBox="0 0 232.209792 27.364621089492477" height="27.364621089492477" width="232.209792"><g transform="matrix(1,0,0,1,0,0)"><svg width="232.209792" viewBox="3.7 -40.8 462.01 54.449999999999996" height="27.364621089492477" data-palette-color="#374151"><path d="M6.55-11.55L8.15-3.45Q11.05-1.45 16.3-1.45L16.3-1.45Q19.85-1.45 21.63-3.5 23.4-5.55 23.4-8.4L23.4-8.4Q23.4-9.9 23.15-10.93 22.9-11.95 22.08-13.25 21.25-14.55 19.45-15.85 17.65-17.15 14.75-18.6L14.75-18.6Q11.35-20.3 9.25-21.8 7.15-23.3 6.1-24.9 5.05-26.5 4.7-27.95 4.35-29.4 4.35-31.55L4.35-31.55Q4.35-35.95 7.88-38.38 11.4-40.8 16.2-40.8L16.2-40.8Q22.15-40.8 27.7-37.8L27.7-37.8 27.7-28.2Q26-27.9 24.85-28.2L24.85-28.2 23.25-36.85Q20.05-38.6 16.1-38.6L16.1-38.6Q13.45-38.6 11.63-37.02 9.8-35.45 9.8-32.6L9.8-32.6Q9.8-31 10-30.1 10.2-29.2 11-27.98 11.8-26.75 13.65-25.53 15.5-24.3 18.6-22.8L18.6-22.8Q29.3-17.6 29.3-10.4L29.3-10.4Q29.3-5.3 25.4-2.15 21.5 1 15.2 1L15.2 1Q8.95 1 3.7-1.95L3.7-1.95 3.7-11.55Q5.4-11.85 6.55-11.55L6.55-11.55ZM37.75-8.7L37.75-32.45Q37.75-35.75 37.6-37.35L37.6-37.35 33.65-37.85Q33.45-38.6 33.65-39.75L33.65-39.75Q37-40 42.2-40.8L42.2-40.8Q42.65-40.3 42.7-39.8L42.7-39.8Q42.45-38.5 42.45-31.7L42.45-31.7 42.45-22.25Q46.15-27.35 51.35-27.35L51.35-27.35Q54.45-27.35 56.65-25.8 58.85-24.25 58.85-20.5L58.85-20.5 58.85-2.55 62.9-1.8Q63.1-1 62.9 0.2L62.9 0.2Q59.75 0.05 56.5 0.05L56.5 0.05Q54.2 0.05 50 0.15L50 0.15Q49.7-0.8 50-1.8L50-1.8 53.95-2.35Q54.15-5.1 54.15-8.7L54.15-8.7 54.15-18Q54.15-21.5 53.27-23.05 52.4-24.6 50.1-24.6L50.1-24.6Q48.2-24.6 46.12-23.2 44.05-21.8 42.45-19.15L42.45-19.15 42.45-2.55 46.5-1.8Q46.7-1 46.5 0.2L46.5 0.2Q43.35 0.05 40.1 0.05L40.1 0.05Q37.8 0.05 33.6 0.15L33.6 0.15Q33.3-0.8 33.6-1.8L33.6-1.8 37.55-2.35Q37.75-5.1 37.75-8.7L37.75-8.7ZM65.85-13.3L65.85-13.3Q65.85-16.3 66.72-18.93 67.6-21.55 69.25-23.5 70.9-25.45 73.22-26.58 75.55-27.7 78.45-27.7L78.45-27.7Q81.3-27.7 83.65-26.58 86-25.45 87.67-23.5 89.35-21.55 90.25-18.93 91.15-16.3 91.15-13.3L91.15-13.3Q91.15-10.2 90.22-7.6 89.3-5 87.62-3.08 85.95-1.15 83.6-0.08 81.25 1 78.45 1L78.45 1Q75.5 1 73.17-0.05 70.85-1.1 69.22-3 67.6-4.9 66.72-7.53 65.85-10.15 65.85-13.3ZM73.15-22.5L73.15-22.5Q71-19.45 71-13.3L71-13.3Q71-10.25 71.57-7.95 72.15-5.65 73.15-4.13 74.15-2.6 75.5-1.85 76.85-1.1 78.45-1.1L78.45-1.1Q80-1.1 81.4-1.85 82.8-2.6 83.8-4.13 84.8-5.65 85.4-7.95 86-10.25 86-13.3L86-13.3Q86-16.35 85.4-18.68 84.8-21 83.77-22.53 82.75-24.05 81.37-24.83 80-25.6 78.45-25.6L78.45-25.6Q75.35-25.6 73.15-22.5ZM110.19-1.7L110.19-1.7Q113.49-1.7 115.42-4.9 117.34-8.1 117.34-14.55L117.34-14.55Q117.34-19.5 115.52-22.1 113.69-24.7 110.69-24.7L110.69-24.7Q106.29-24.7 103.09-20.45L103.09-20.45 103.09-4.9Q105.89-1.7 110.19-1.7ZM98.34 4.75L98.34-19.55Q98.34-22.9 98.19-24.25L98.19-24.25 94.24-24.75Q94.09-25.55 94.24-26.65L94.24-26.65Q97.74-26.9 102.84-27.7L102.84-27.7Q103.29-27.25 103.34-26.7L103.34-26.7Q103.09-24.95 103.09-23L103.09-23Q107.14-27.7 112.39-27.7L112.39-27.7Q116.79-27.7 119.72-24.05 122.64-20.4 122.64-14.4L122.64-14.4Q122.64-7.45 118.82-3.23 114.99 1 109.79 1L109.79 1Q106.14 1 103.09-1.35L103.09-1.35 103.09 10.9 108.14 11.65Q108.34 12.45 108.14 13.65L108.14 13.65Q104.99 13.5 101.19 13.5L101.19 13.5Q98.39 13.5 94.19 13.6L94.19 13.6Q93.89 12.6 94.19 11.65L94.19 11.65 98.14 11.1Q98.34 8.35 98.34 4.75L98.34 4.75ZM143.89-6.65L143.89-6.65Q143.89-4.05 144.84-2.98 145.79-1.9 147.84-1.9L147.84-1.9Q149.34-1.9 151.16-2.83 152.99-3.75 154.54-5.5L154.54-5.5 154.54-13.3Q149.39-13 146.64-11.48 143.89-9.95 143.89-6.65ZM154.54-15.1L154.54-15.1 154.54-17.65Q154.54-21.9 153.56-23.83 152.59-25.75 150.34-25.75L150.34-25.75Q148.04-25.75 146.64-24.28 145.24-22.8 144.74-19.25L144.74-19.25Q143.14-18.9 142.39-18.9L142.39-18.9Q140.44-18.9 140.09-20.3L140.09-20.3Q140.09-23.7 143.04-25.7 145.99-27.7 150.39-27.7L150.39-27.7Q155.24-27.7 157.26-25.73 159.29-23.75 159.29-18.65L159.29-18.65 159.29-4.55Q159.29-3.3 159.44-2.4L159.44-2.4 163.39-1.9Q163.59-1.15 163.39 0L163.39 0Q159.84 0.15 155.84 0.7L155.84 0.7Q155.44 0.3 155.34-0.3L155.34-0.3 155.09-3.75Q150.94 1 145.84 1L145.84 1Q142.69 1 140.91-0.8 139.14-2.6 139.14-5.65L139.14-5.65Q139.14-10.25 143.31-12.6 147.49-14.95 154.54-15.1ZM173.69-31.7L173.69-31.7 173.69-2.55 177.74-1.8Q177.94-1 177.74 0.2L177.74 0.2Q174.59 0.05 171.29 0.05L171.29 0.05Q168.99 0.05 164.79 0.15L164.79 0.15Q164.49-0.8 164.79-1.8L164.79-1.8 168.74-2.35Q168.94-5.1 168.94-8.7L168.94-8.7 168.94-37.35 164.84-37.85Q164.64-38.6 164.84-39.75L164.84-39.75Q168.29-40 173.44-40.8L173.44-40.8Q173.89-40.3 173.94-39.8L173.94-39.8Q173.69-38.5 173.69-31.7ZM188.63-31.7L188.63-31.7 188.63-2.55 192.68-1.8Q192.88-1 192.68 0.2L192.68 0.2Q189.53 0.05 186.23 0.05L186.23 0.05Q183.93 0.05 179.73 0.15L179.73 0.15Q179.43-0.8 179.73-1.8L179.73-1.8 183.68-2.35Q183.88-5.1 183.88-8.7L183.88-8.7 183.88-37.35 179.78-37.85Q179.58-38.6 179.78-39.75L179.78-39.75Q183.23-40 188.38-40.8L188.38-40.8Q188.83-40.3 188.88-39.8L188.88-39.8Q188.63-38.5 188.63-31.7ZM216.38 7.4L216.38 7.4 219.58-0.15 209.88-24.05 205.98-24.85Q205.73-25.85 205.98-26.85L205.98-26.85Q208.73-26.65 212.68-26.65L212.68-26.65Q216.23-26.65 219.43-26.8L219.43-26.8Q219.73-25.8 219.43-24.85L219.43-24.85 215.13-24.15 219.88-12.9Q220.88-10.45 221.98-6.05L221.98-6.05 222.08-6.05Q222.93-9.05 224.43-12.65L224.43-12.65 228.78-24.3 224.88-24.85Q224.68-25.65 224.88-26.85L224.88-26.85Q227.63-26.65 230.23-26.65L230.23-26.65Q232.43-26.65 235.68-26.8L235.68-26.8Q235.98-25.8 235.68-24.85L235.68-24.85 231.73-24.3 218.53 8Q217.48 10.5 216.18 11.75 214.88 13 212.73 13L212.73 13Q211.03 13 210.1 12.58 209.18 12.15 208.23 10.95L208.23 10.95Q208.53 8.2 211.08 6.55L211.08 6.55Q213.13 8.85 214.58 8.85L214.58 8.85Q215.83 8.85 216.38 7.4ZM236.98-13.3L236.98-13.3Q236.98-16.3 237.85-18.93 238.73-21.55 240.38-23.5 242.03-25.45 244.35-26.58 246.68-27.7 249.58-27.7L249.58-27.7Q252.43-27.7 254.78-26.58 257.13-25.45 258.8-23.5 260.48-21.55 261.38-18.93 262.28-16.3 262.28-13.3L262.28-13.3Q262.28-10.2 261.35-7.6 260.43-5 258.75-3.08 257.08-1.15 254.73-0.08 252.38 1 249.58 1L249.58 1Q246.63 1 244.3-0.05 241.98-1.1 240.35-3 238.73-4.9 237.85-7.53 236.98-10.15 236.98-13.3ZM244.28-22.5L244.28-22.5Q242.13-19.45 242.13-13.3L242.13-13.3Q242.13-10.25 242.7-7.95 243.28-5.65 244.28-4.13 245.28-2.6 246.63-1.85 247.98-1.1 249.58-1.1L249.58-1.1Q251.13-1.1 252.53-1.85 253.93-2.6 254.93-4.13 255.93-5.65 256.53-7.95 257.13-10.25 257.13-13.3L257.13-13.3Q257.13-16.35 256.53-18.68 255.93-21 254.9-22.53 253.88-24.05 252.5-24.83 251.13-25.6 249.58-25.6L249.58-25.6Q246.48-25.6 244.28-22.5ZM290.22-26.7L290.22-26.7 290.22-7.1Q290.22-3.75 290.37-2.4L290.37-2.4 294.32-1.9Q294.47-1.1 294.32 0L294.32 0Q290.67 0.15 286.72 0.7L286.72 0.7Q286.37 0.35 286.22-0.25L286.22-0.25 285.97-4.7Q283.87-2 281.65-0.5 279.42 1 276.42 1L276.42 1Q273.37 1 271.3-0.55 269.22-2.1 269.22-5.85L269.22-5.85 269.22-16.95Q269.22-22.65 269.07-24.25L269.07-24.25 265.12-24.75Q264.92-25.5 265.12-26.65L265.12-26.65Q268.57-26.9 273.72-27.7L273.72-27.7Q274.17-27.2 274.22-26.7L274.22-26.7Q273.97-25.4 273.97-8.35L273.97-8.35Q273.97-4.85 274.8-3.38 275.62-1.9 277.87-1.9L277.87-1.9Q282.07-1.9 285.47-6.9L285.47-6.9 285.47-17Q285.47-22.65 285.32-24.25L285.32-24.25 281.37-24.75Q281.17-25.5 281.37-26.65L281.37-26.65Q284.37-26.85 289.72-27.7L289.72-27.7Q290.17-27.2 290.22-26.7ZM305.82-26.7L305.82-26.7 305.72-21.55Q306.97-23.85 309.2-25.78 311.42-27.7 313.42-27.7L313.42-27.7Q314.97-27.7 316.17-27.35L316.17-27.35Q316.57-26.7 316.57-25.65L316.57-25.65Q316.57-24 315.87-22.35L315.87-22.35Q314.07-22.85 312.42-22.85L312.42-22.85Q308.32-22.85 305.67-18.85L305.67-18.85 305.57-10.1 305.57-2.55 311.12-1.8Q311.32-1 311.12 0.2L311.12 0.2Q307.97 0.05 303.92 0.05L303.92 0.05Q300.87 0.05 296.67 0.15L296.67 0.15Q296.37-0.8 296.67-1.8L296.67-1.8 300.62-2.35Q300.82-5.1 300.82-8.7L300.82-8.7 300.82-22.4Q300.82-23.4 300.67-24.25L300.67-24.25 296.72-24.75Q296.52-25.5 296.72-26.65L296.72-26.65Q300.17-26.9 305.32-27.7L305.32-27.7Q305.77-27.2 305.82-26.7ZM351.52-8.7L351.52-17.85Q351.52-21.7 350.49-23.25 349.47-24.8 347.07-24.8L347.07-24.8Q343.37-24.8 339.62-19.25L339.62-19.25 339.62-2.55 343.67-1.8Q343.87-1 343.67 0.2L343.67 0.2Q340.52 0.05 337.22 0.05L337.22 0.05Q334.92 0.05 330.72 0.15L330.72 0.15Q330.42-0.8 330.72-1.8L330.72-1.8 334.67-2.35Q334.87-5.1 334.87-8.7L334.87-8.7 334.87-22.4Q334.87-23.4 334.72-24.25L334.72-24.25 330.77-24.75Q330.57-25.5 330.77-26.65L330.77-26.65Q334.22-26.9 339.37-27.7L339.37-27.7Q339.82-27.2 339.87-26.7L339.87-26.7Q339.62-25.4 339.62-22.25L339.62-22.25Q343.57-27.7 348.52-27.7L348.52-27.7Q356.27-27.7 356.27-20.35L356.27-20.35 356.27-2.55 360.32-1.8Q360.52-1 360.32 0.2L360.32 0.2Q357.17 0.05 353.87 0.05L353.87 0.05Q351.57 0.05 347.37 0.15L347.37 0.15Q347.07-0.8 347.37-1.8L347.37-1.8 351.32-2.35Q351.52-5.1 351.52-8.7L351.52-8.7ZM384.11-14.1L384.11-14.1 368.41-14.1Q367.96-1.35 376.06-1.35L376.06-1.35Q379.51-1.35 383.11-4.4L383.11-4.4Q383.86-3.95 384.26-2.85L384.26-2.85Q380.81 1 375.51 1L375.51 1Q363.31 1 363.31-13.35L363.31-13.35Q363.31-20.15 366.91-23.93 370.51-27.7 375.31-27.7L375.31-27.7Q380.56-27.7 382.86-24.05 385.16-20.4 385.16-14.55L385.16-14.55Q384.66-14.15 384.11-14.1ZM375.21-25.7L375.21-25.7Q372.61-25.7 370.79-23 368.96-20.3 368.56-16.1L368.56-16.1 374.76-16.1Q378.46-16.1 380.06-16.55L380.06-16.55Q380.06-20.65 378.81-23.18 377.56-25.7 375.21-25.7ZM410.36-14.1L410.36-14.1 394.66-14.1Q394.21-1.35 402.31-1.35L402.31-1.35Q405.76-1.35 409.36-4.4L409.36-4.4Q410.11-3.95 410.51-2.85L410.51-2.85Q407.06 1 401.76 1L401.76 1Q389.56 1 389.56-13.35L389.56-13.35Q389.56-20.15 393.16-23.93 396.76-27.7 401.56-27.7L401.56-27.7Q406.81-27.7 409.11-24.05 411.41-20.4 411.41-14.55L411.41-14.55Q410.91-14.15 410.36-14.1ZM401.46-25.7L401.46-25.7Q398.86-25.7 397.04-23 395.21-20.3 394.81-16.1L394.81-16.1 401.01-16.1Q404.71-16.1 406.31-16.55L406.31-16.55Q406.31-20.65 405.06-23.18 403.81-25.7 401.46-25.7ZM439.86-31.7L439.86-7.1Q439.86-3.75 440.01-2.4L440.01-2.4 443.96-1.9Q444.11-1.1 443.96 0L443.96 0Q440.31 0.15 436.36 0.7L436.36 0.7Q436.01 0.35 435.86-0.25L435.86-0.25 435.61-3.45Q433.86-1.4 431.26-0.18 428.66 1.05 425.81 1.05L425.81 1.05Q421.46 1.05 418.61-2.58 415.76-6.2 415.76-12.25L415.76-12.25Q415.76-19.25 419.48-23.48 423.21-27.7 428.41-27.7L428.41-27.7Q432.51-27.7 435.11-25.75L435.11-25.75 435.11-32.45Q435.11-35.75 434.96-37.35L434.96-37.35 431.01-37.85Q430.81-38.6 431.01-39.75L431.01-39.75Q434.46-40 439.61-40.8L439.61-40.8Q440.06-40.3 440.11-39.8L440.11-39.8Q439.86-38.5 439.86-31.7L439.86-31.7ZM428.01-25L428.01-25Q424.76-25 422.81-21.58 420.86-18.15 420.86-12.1L420.86-12.1Q420.86-7.15 422.68-4.55 424.51-1.95 427.51-1.95L427.51-1.95Q429.31-1.95 431.46-3.08 433.61-4.2 435.11-6.2L435.11-6.2 435.11-22.2Q432.66-25 428.01-25ZM455.91-1.2L455.91-1.2Q458.61-1.2 459.91-2.45 461.21-3.7 461.21-5.35L461.21-5.35Q461.21-6.3 460.91-7.1 460.61-7.9 459.93-8.65 459.26-9.4 458.16-10.13 457.06-10.85 455.41-11.7L455.41-11.7Q453.36-12.75 451.88-13.7 450.41-14.65 449.46-15.7 448.51-16.75 448.03-17.95 447.56-19.15 447.56-20.65L447.56-20.65Q447.56-22.45 448.21-23.78 448.86-25.1 450.03-25.98 451.21-26.85 452.81-27.28 454.41-27.7 456.36-27.7L456.36-27.7Q460.26-27.7 463.96-25.8L463.96-25.8 463.96-19.4 461.61-19.4 460.51-24.8Q458.31-25.85 455.86-25.85L455.86-25.85Q451.76-25.85 451.76-22.5L451.76-22.5Q451.76-20.7 453.11-19.2 454.46-17.7 457.46-16.2L457.46-16.2Q459.51-15.15 461.06-14.2 462.61-13.25 463.63-12.2 464.66-11.15 465.18-9.93 465.71-8.7 465.71-7.15L465.71-7.15Q465.71-5.4 464.96-3.9 464.21-2.4 462.86-1.33 461.51-0.25 459.61 0.38 457.71 1 455.41 1L455.41 1Q450.96 1 447.06-0.9L447.06-0.9 447.06-7.3 449.41-7.3 450.51-2.35Q453.06-1.2 455.91-1.2Z" opacity="1" transform="matrix(1,0,0,1,0,0)" fill="#ffffff" class="slogan-text-1" data-fill-palette-color="secondary" id="text-1"></path></svg></g></svg></g></svg></g></svg></g><g><svg viewBox="0 0 229.26666534977937 229.26666534977937" height="229.26666534977937" width="229.26666534977937"><g><svg></svg></g><g id="icon-0"><svg viewBox="0 0 229.26666534977937 229.26666534977937" height="229.26666534977937" width="229.26666534977937"><g><path d="M0 114.633c0-63.31 51.323-114.633 114.633-114.633 63.31 0 114.633 51.323 114.634 114.633 0 63.31-51.323 114.633-114.634 114.634-63.31 0-114.633-51.323-114.633-114.634zM114.633 223.997c60.4 0 109.364-48.964 109.364-109.364 0-60.4-48.964-109.364-109.364-109.364-60.4 0-109.364 48.964-109.364 109.364 0 60.4 48.964 109.364 109.364 109.364z" data-fill-palette-color="accent" fill="#ffffff" stroke="transparent"></path></g><g transform="matrix(1,0,0,1,46.51920232646924,65.78289326115774)"><svg viewBox="0 0 136.2282606968409 97.70087882746391" height="97.70087882746391" width="136.2282606968409"><g><svg xmlns="http://www.w3.org/2000/svg" xmlns:xlink="http://www.w3.org/1999/xlink" version="1.1" x="0" y="0" viewBox="17.157000000000004 24.612 69.17600487122564 49.611999999999995" style="enable-background:new 0 0 100 100;" xml:space="preserve" height="97.70087882746391" width="136.2282606968409" class="icon-cg-0" data-fill-palette-color="accent" id="cg-0"><g fill="#374151" data-fill-palette-color="accent"><path d="M74.31 50.046H50.974c-0.828 0-1.499 0.671-1.499 1.499v15.03c0 0.828 0.671 1.499 1.499 1.499H74.31c0.828 0 1.499-0.671 1.499-1.499v-15.03C75.809 50.717 75.138 50.046 74.31 50.046zM72.811 65.077H52.473V53.045H72.81L72.811 65.077 72.811 65.077z" fill="#ffffff" data-fill-palette-color="accent"></path><path d="M76.496 24.612H26.997l-2.999 0.887-6.412 6.545c-0.275 0.28-0.429 0.657-0.429 1.05v5.706c0 2.934 1.565 5.509 3.903 6.935v26.99c0 0.828 0.671 1.499 1.499 1.499h7.562c0.008 0 0.014-0.002 0.022-0.002 0.008 0 0.014 0.002 0.022 0.002 0.828 0 1.499-0.671 1.499-1.499V53.045h10.748v19.679c0 0.828 0.671 1.499 1.499 1.499h36.714c0.828 0 1.499-0.671 1.499-1.499V45.91c2.507-1.383 4.209-4.052 4.209-7.111v-5.706c0.001-0.393-0.152-0.769-0.427-1.05l-6.412-6.545L76.496 24.612zM79.128 71.224H45.412V51.546c0-0.828-0.671-1.499-1.499-1.499H30.166c-0.828 0-1.499 0.671-1.499 1.499v19.679h-4.606v-24.4c0.396 0.06 0.802 0.091 1.215 0.091 2.728 0 5.145-1.352 6.618-3.422 1.473 2.07 3.89 3.422 6.618 3.422s5.145-1.352 6.618-3.422c1.473 2.07 3.89 3.422 6.618 3.422s5.146-1.352 6.618-3.422c1.473 2.069 3.89 3.422 6.618 3.422 2.728 0 5.145-1.352 6.618-3.422 1.473 2.07 3.89 3.422 6.618 3.422 0.308 0 0.611-0.019 0.91-0.052v24.361H79.128zM83.336 38.798c0 2.822-2.296 5.118-5.118 5.118s-5.118-2.296-5.118-5.118c0-0.828-0.671-1.499-1.499-1.499-0.828 0-1.499 0.671-1.499 1.499 0 2.822-2.296 5.118-5.118 5.118s-5.118-2.296-5.118-5.118c0-0.828-0.671-1.499-1.499-1.499-0.828 0-1.499 0.671-1.499 1.499 0 2.822-2.296 5.118-5.119 5.118s-5.118-2.296-5.118-5.118c0-0.828-0.671-1.499-1.499-1.499-0.828 0-1.499 0.671-1.499 1.499 0 2.822-2.296 5.118-5.118 5.118-2.822 0-5.118-2.296-5.118-5.118 0-0.828-0.671-1.499-1.499-1.499s-1.499 0.671-1.499 1.499c0 2.822-2.296 5.118-5.118 5.118s-5.118-2.296-5.118-5.118v-5.094l5.971-6.094h51.236l5.971 6.094L83.336 38.798 83.336 38.798z" fill="#ffffff" data-fill-palette-color="accent"></path></g></svg></g></svg></g></svg></g></svg></g></svg></g><defs></defs></svg><rect width="395.52" height="138.9992307949389" fill="none" stroke="none" visibility="hidden"></rect></g></svg></g></svg>